<svg width="64" height="64" xmlns="http://www.w3.org/2000/svg">

 <g>
  <title>background</title>
  <rect fill="none" id="canvas_background" height="402" width="582" y="-1" x="-1"/>
 </g>
 <g>
  <title>Layer 1</title>
  <circle id="svg_2" r="32" fill="#06d608" cy="32" cx="32"/>
  <path opacity="0.2" id="svg_6" fill="#231F20" d="m42.460999,44c-0.670998,0 -1.326,-0.338001 -1.704998,-0.951c-0.580002,-0.939999 -0.286999,-2.172001 0.653,-2.751999l10.124001,-6.242001c0.004997,-0.018002 0.007,-0.035999 0.007,-0.056s-0.002003,-0.038002 -0.007,-0.056l-10.123001,-6.240002c-0.939999,-0.58 -1.231998,-1.811998 -0.653,-2.751999c0.580002,-0.940001 1.812,-1.232 2.751999,-0.653l10.630001,6.553999l0.165001,0.165001c0.797001,0.796999 1.236,1.856001 1.236,2.983c0,1.125999 -0.438999,2.186001 -1.236,2.983002l-0.166,0.165997l-10.630001,6.554001c-0.326,0.201 -0.688999,0.297001 -1.047001,0.297001z"/>
  <path opacity="0.2" id="svg_9" fill="#231F20" d="m21.539,44c-0.358,0 -0.720999,-0.096001 -1.048,-0.298l-10.629999,-6.554001l-0.166,-0.166c-0.797,-0.795998 -1.236,-1.855999 -1.236,-2.981998c0,-1.126999 0.439,-2.187 1.236,-2.983l0.165,-0.165001l10.63,-6.553999c0.941,-0.58 2.172001,-0.287001 2.752001,0.653c0.58,0.940001 0.286999,2.171999 -0.653,2.751999l-10.124001,6.242001c-0.005,0.018002 -0.007,0.035999 -0.007,0.056s0.002,0.038002 0.007,0.056l10.124001,6.242001c0.939999,0.580002 1.231998,1.812 0.653,2.751999c-0.377001,0.612 -1.033001,0.949001 -1.703001,0.949001z"/>
  <path opacity="0.2" id="svg_12" fill="#231F20" d="m25.5,53c-0.237,0 -0.479,-0.042 -0.714001,-0.132c-1.032,-0.395 -1.547998,-1.550999 -1.153999,-2.583l13,-34c0.395,-1.032 1.550999,-1.549 2.583,-1.154c1.032001,0.395 1.548,1.551 1.153999,2.583001l-13,34c-0.306,0.797001 -1.063999,1.285999 -1.868999,1.285999z"/>
  <path id="svg_15" fill="#011117" d="m42.460999,42c-0.670998,0 -1.327,-0.337002 -1.704998,-0.950001c-0.580002,-0.939999 -0.286999,-2.173 0.653,-2.751999l10.123001,-6.241001c0.009998,-0.036999 0.009998,-0.075998 0,-0.112999l-10.122002,-6.242001c-0.939999,-0.579 -1.233002,-1.812 -0.653,-2.751999c0.580002,-0.940001 1.811001,-1.233002 2.751999,-0.652l10.631001,6.553999l0.166,0.165001c1.644001,1.646 1.644001,4.321001 0,5.967001l-0.166,0.164997l-10.631001,6.554001c-0.327,0.201 -0.689999,0.297001 -1.048,0.297001z"/>
  <path id="svg_17" fill="#011117" d="m21.539,42c-0.358,0 -0.719999,-0.096001 -1.046999,-0.298l-10.632001,-6.554001l-0.165999,-0.164997c-1.644,-1.646 -1.644,-4.321001 0,-5.967001l0.165999,-0.165001l10.631,-6.553999c0.939001,-0.581001 2.173,-0.288 2.752001,0.651999c0.58,0.940001 0.287001,2.173 -0.653,2.752001l-10.123,6.240999c-0.01,0.037001 -0.01,0.076002 0,0.113001l10.123,6.241001c0.940001,0.578999 1.233,1.812 0.653,2.751999c-0.378,0.614998 -1.034,0.952 -1.704,0.952z"/>
  <path id="svg_19" fill="#011117" d="m25.5,51.000999c-0.237,0 -0.479,-0.042999 -0.714001,-0.132999c-1.032,-0.395 -1.547998,-1.550999 -1.153999,-2.582001l13,-33.999999c0.395,-1.031 1.550999,-1.55 2.583,-1.154c1.032001,0.395 1.548,1.551 1.153999,2.582l-13,34.000001c-0.306,0.797001 -1.063999,1.286999 -1.868999,1.286999z"/>
 </g>
</svg>